G04 MADE WITH FRITZING*
G04 WWW.FRITZING.ORG*
G04 DOUBLE SIDED*
G04 HOLES PLATED*
G04 CONTOUR ON CENTER OF CONTOUR VECTOR*
%ASAXBY*%
%FSLAX23Y23*%
%MOIN*%
%OFA0B0*%
%SFA1.0B1.0*%
%ADD10C,0.039370*%
%ADD11C,0.055990*%
%ADD12C,0.065993*%
%ADD13C,0.065965*%
%ADD14C,0.075000*%
%ADD15R,0.075000X0.075000*%
%ADD16C,0.024000*%
%LNCOPPER0*%
G90*
G70*
G54D10*
X6108Y3007D03*
X6900Y799D03*
X6324Y1471D03*
X4644Y559D03*
X6588Y847D03*
X6300Y3079D03*
X2796Y3199D03*
X6420Y3079D03*
X5652Y2863D03*
X5148Y823D03*
X5724Y2071D03*
X6516Y3055D03*
X3060Y2935D03*
X6780Y3319D03*
X6444Y2407D03*
X5244Y3631D03*
X6852Y3367D03*
X6036Y2359D03*
X4524Y3847D03*
X3684Y559D03*
X5436Y2767D03*
X5724Y3415D03*
X6708Y3055D03*
X6564Y2287D03*
X3300Y415D03*
X3852Y415D03*
X4452Y487D03*
X708Y3943D03*
X2556Y535D03*
X6324Y2167D03*
X7284Y4111D03*
X2724Y3871D03*
X2244Y2983D03*
X3036Y3319D03*
X2028Y1159D03*
X1476Y439D03*
X564Y3943D03*
X1044Y3895D03*
X6732Y2863D03*
X6036Y2743D03*
G54D11*
X5111Y1229D03*
X3511Y1229D03*
X5211Y1229D03*
X5311Y1229D03*
X5411Y1229D03*
X5511Y1229D03*
G54D12*
X5811Y2629D03*
G54D11*
X5611Y1229D03*
X5711Y1229D03*
X3551Y3129D03*
X4111Y1229D03*
X4211Y1229D03*
X4311Y1229D03*
X4411Y1229D03*
G54D12*
X5811Y1829D03*
G54D11*
X4511Y1229D03*
X4611Y1229D03*
X4711Y1229D03*
X4811Y1229D03*
X4311Y3129D03*
G54D12*
X5811Y3029D03*
X5811Y2229D03*
X5811Y1429D03*
G54D11*
X3151Y3129D03*
X3911Y1229D03*
X3911Y3129D03*
G54D12*
X5811Y2829D03*
X5811Y2429D03*
G54D13*
X5811Y2029D03*
G54D11*
X5511Y3129D03*
G54D12*
X5811Y1629D03*
G54D11*
X5411Y3129D03*
X5311Y3129D03*
X5211Y3129D03*
X5111Y3129D03*
X5011Y3129D03*
X4911Y3129D03*
X4811Y3129D03*
X2951Y3129D03*
X3351Y3129D03*
X3751Y3129D03*
X3311Y1229D03*
X3711Y1229D03*
X4511Y3129D03*
X4111Y3129D03*
G54D12*
X5811Y3129D03*
X5811Y2929D03*
X5811Y2729D03*
X5811Y2529D03*
X5811Y2329D03*
X5811Y2129D03*
X5811Y1929D03*
X5811Y1729D03*
G54D13*
X5811Y1529D03*
G54D11*
X2851Y3129D03*
X3051Y3129D03*
X3251Y3129D03*
X3451Y3129D03*
X3651Y3129D03*
X3211Y1229D03*
X3411Y1229D03*
X3611Y1229D03*
X3811Y1229D03*
X4611Y3129D03*
X4411Y3129D03*
X4211Y3129D03*
X4011Y3129D03*
G54D12*
X5911Y3129D03*
X5911Y3029D03*
X5911Y2929D03*
X5911Y2829D03*
X5911Y2729D03*
X5911Y2629D03*
X5911Y2529D03*
X5911Y2429D03*
X5911Y2329D03*
X5911Y2229D03*
X5911Y2129D03*
G54D13*
X5911Y2029D03*
G54D12*
X5911Y1929D03*
X5911Y1829D03*
X5911Y1729D03*
X5911Y1629D03*
G54D13*
X5911Y1529D03*
G54D12*
X5911Y1429D03*
G54D11*
X5011Y1229D03*
G54D14*
X911Y4029D03*
X911Y3729D03*
X811Y4029D03*
X811Y3729D03*
X711Y4029D03*
X711Y3729D03*
X611Y4029D03*
X611Y3729D03*
X511Y4029D03*
X511Y3729D03*
X411Y4029D03*
X411Y3729D03*
X311Y4029D03*
X311Y3729D03*
X211Y4029D03*
X211Y3729D03*
X7411Y329D03*
X7411Y629D03*
X7511Y329D03*
X7511Y629D03*
X7611Y329D03*
X7611Y629D03*
X7711Y329D03*
X7711Y629D03*
X7811Y329D03*
X7811Y629D03*
X7911Y329D03*
X7911Y629D03*
X8011Y329D03*
X8011Y629D03*
X8111Y329D03*
X8111Y629D03*
X1811Y4029D03*
X1811Y3729D03*
X1711Y4029D03*
X1711Y3729D03*
X1611Y4029D03*
X1611Y3729D03*
X1511Y4029D03*
X1511Y3729D03*
X1411Y4029D03*
X1411Y3729D03*
X1311Y4029D03*
X1311Y3729D03*
X1211Y4029D03*
X1211Y3729D03*
X1111Y4029D03*
X1111Y3729D03*
X2711Y4029D03*
X2711Y3729D03*
X2611Y4029D03*
X2611Y3729D03*
X2511Y4029D03*
X2511Y3729D03*
X2411Y4029D03*
X2411Y3729D03*
X2311Y4029D03*
X2311Y3729D03*
X2211Y4029D03*
X2211Y3729D03*
X2111Y4029D03*
X2111Y3729D03*
X2011Y4029D03*
X2011Y3729D03*
X3611Y4029D03*
X3611Y3729D03*
X3511Y4029D03*
X3511Y3729D03*
X3411Y4029D03*
X3411Y3729D03*
X3311Y4029D03*
X3311Y3729D03*
X3211Y4029D03*
X3211Y3729D03*
X3111Y4029D03*
X3111Y3729D03*
X3011Y4029D03*
X3011Y3729D03*
X2911Y4029D03*
X2911Y3729D03*
X4511Y4029D03*
X4511Y3729D03*
X4411Y4029D03*
X4411Y3729D03*
X4311Y4029D03*
X4311Y3729D03*
X4211Y4029D03*
X4211Y3729D03*
X4111Y4029D03*
X4111Y3729D03*
X4011Y4029D03*
X4011Y3729D03*
X3911Y4029D03*
X3911Y3729D03*
X3811Y4029D03*
X3811Y3729D03*
X5411Y4029D03*
X5411Y3729D03*
X5311Y4029D03*
X5311Y3729D03*
X5211Y4029D03*
X5211Y3729D03*
X5111Y4029D03*
X5111Y3729D03*
X5011Y4029D03*
X5011Y3729D03*
X4911Y4029D03*
X4911Y3729D03*
X4811Y4029D03*
X4811Y3729D03*
X4711Y4029D03*
X4711Y3729D03*
X6311Y4029D03*
X6311Y3729D03*
X6211Y4029D03*
X6211Y3729D03*
X6111Y4029D03*
X6111Y3729D03*
X6011Y4029D03*
X6011Y3729D03*
X5911Y4029D03*
X5911Y3729D03*
X5811Y4029D03*
X5811Y3729D03*
X5711Y4029D03*
X5711Y3729D03*
X5611Y4029D03*
X5611Y3729D03*
X7211Y4029D03*
X7211Y3729D03*
X7111Y4029D03*
X7111Y3729D03*
X7011Y4029D03*
X7011Y3729D03*
X6911Y4029D03*
X6911Y3729D03*
X6811Y4029D03*
X6811Y3729D03*
X6711Y4029D03*
X6711Y3729D03*
X6611Y4029D03*
X6611Y3729D03*
X6511Y4029D03*
X6511Y3729D03*
X8111Y4029D03*
X8111Y3729D03*
X8011Y4029D03*
X8011Y3729D03*
X7911Y4029D03*
X7911Y3729D03*
X7811Y4029D03*
X7811Y3729D03*
X7711Y4029D03*
X7711Y3729D03*
X7611Y4029D03*
X7611Y3729D03*
X7511Y4029D03*
X7511Y3729D03*
X7411Y4029D03*
X7411Y3729D03*
X211Y329D03*
X211Y629D03*
X311Y329D03*
X311Y629D03*
X411Y329D03*
X411Y629D03*
X511Y329D03*
X511Y629D03*
X611Y329D03*
X611Y629D03*
X711Y329D03*
X711Y629D03*
X811Y329D03*
X811Y629D03*
X911Y329D03*
X911Y629D03*
X1111Y329D03*
X1111Y629D03*
X1211Y329D03*
X1211Y629D03*
X1311Y329D03*
X1311Y629D03*
X1411Y329D03*
X1411Y629D03*
X1511Y329D03*
X1511Y629D03*
X1611Y329D03*
X1611Y629D03*
X1711Y329D03*
X1711Y629D03*
X1811Y329D03*
X1811Y629D03*
X2011Y329D03*
X2011Y629D03*
X2111Y329D03*
X2111Y629D03*
X2211Y329D03*
X2211Y629D03*
X2311Y329D03*
X2311Y629D03*
X2411Y329D03*
X2411Y629D03*
X2511Y329D03*
X2511Y629D03*
X2611Y329D03*
X2611Y629D03*
X2711Y329D03*
X2711Y629D03*
X2911Y329D03*
X2911Y629D03*
X3011Y329D03*
X3011Y629D03*
X3111Y329D03*
X3111Y629D03*
X3211Y329D03*
X3211Y629D03*
X3311Y329D03*
X3311Y629D03*
X3411Y329D03*
X3411Y629D03*
X3511Y329D03*
X3511Y629D03*
X3611Y329D03*
X3611Y629D03*
X3811Y329D03*
X3811Y629D03*
X3911Y329D03*
X3911Y629D03*
X4011Y329D03*
X4011Y629D03*
X4111Y329D03*
X4111Y629D03*
X4211Y329D03*
X4211Y629D03*
X4311Y329D03*
X4311Y629D03*
X4411Y329D03*
X4411Y629D03*
X4511Y329D03*
X4511Y629D03*
X4711Y329D03*
X4711Y629D03*
X4811Y329D03*
X4811Y629D03*
X4911Y329D03*
X4911Y629D03*
X5011Y329D03*
X5011Y629D03*
X5111Y329D03*
X5111Y629D03*
X5211Y329D03*
X5211Y629D03*
X5311Y329D03*
X5311Y629D03*
X5411Y329D03*
X5411Y629D03*
X5611Y329D03*
X5611Y629D03*
X5711Y329D03*
X5711Y629D03*
X5811Y329D03*
X5811Y629D03*
X5911Y329D03*
X5911Y629D03*
X6011Y329D03*
X6011Y629D03*
X6111Y329D03*
X6111Y629D03*
X6211Y329D03*
X6211Y629D03*
X6311Y329D03*
X6311Y629D03*
X6511Y329D03*
X6511Y629D03*
X6611Y329D03*
X6611Y629D03*
X6711Y329D03*
X6711Y629D03*
X6811Y329D03*
X6811Y629D03*
X6911Y329D03*
X6911Y629D03*
X7011Y329D03*
X7011Y629D03*
X7111Y329D03*
X7111Y629D03*
X7211Y329D03*
X7211Y629D03*
G54D15*
X911Y4029D03*
X7411Y329D03*
X1811Y4029D03*
X2711Y4029D03*
X3611Y4029D03*
X4511Y4029D03*
X5411Y4029D03*
X6311Y4029D03*
X7211Y4029D03*
X8111Y4029D03*
X211Y329D03*
X1111Y329D03*
X2011Y329D03*
X2911Y329D03*
X3811Y329D03*
X4711Y329D03*
X5611Y329D03*
X6511Y329D03*
G54D16*
X5011Y3700D02*
X5011Y3156D01*
D02*
X3422Y3702D02*
X3641Y3154D01*
D02*
X3132Y3709D02*
X3420Y3439D01*
X3420Y3439D02*
X3448Y3156D01*
D02*
X5891Y3708D02*
X5331Y3148D01*
D02*
X6002Y656D02*
X5748Y1375D01*
D02*
X5748Y1375D02*
X5748Y1783D01*
D02*
X5748Y1783D02*
X5787Y1811D01*
D02*
X6097Y3022D02*
X5964Y3199D01*
D02*
X5964Y3199D02*
X5772Y3199D01*
D02*
X5772Y3199D02*
X5748Y3175D01*
D02*
X5748Y3175D02*
X5748Y3055D01*
D02*
X5748Y3055D02*
X5784Y3040D01*
D02*
X7596Y653D02*
X7548Y727D01*
D02*
X7548Y727D02*
X6828Y727D01*
D02*
X6828Y727D02*
X5932Y1608D01*
D02*
X6886Y812D02*
X5933Y1708D01*
D02*
X6094Y3752D02*
X6060Y3799D01*
X6060Y3799D02*
X5556Y3799D01*
X5556Y3799D02*
X5224Y3153D01*
D02*
X5219Y656D02*
X5364Y1183D01*
D02*
X5364Y1183D02*
X5364Y1495D01*
D02*
X5364Y1495D02*
X5790Y1908D01*
D02*
X7789Y646D02*
X7596Y799D01*
D02*
X7596Y799D02*
X6900Y883D01*
D02*
X6900Y883D02*
X6337Y1458D01*
D02*
X1227Y3705D02*
X1260Y3655D01*
X1260Y3655D02*
X1764Y3655D01*
X1764Y3655D02*
X1796Y3705D01*
D02*
X2693Y3751D02*
X2652Y3799D01*
X2652Y3799D02*
X2148Y3799D01*
X2148Y3799D02*
X2124Y3754D01*
D02*
X4493Y3751D02*
X4452Y3799D01*
D02*
X4452Y3799D02*
X3948Y3799D01*
X3948Y3799D02*
X3924Y3754D01*
D02*
X7196Y3705D02*
X7164Y3655D01*
X7164Y3655D02*
X6660Y3655D01*
X6660Y3655D02*
X6627Y3705D01*
D02*
X7493Y3751D02*
X7452Y3799D01*
X7452Y3799D02*
X7356Y3799D01*
X7356Y3799D02*
X7237Y3741D01*
D02*
X8093Y3751D02*
X8052Y3799D01*
D02*
X8052Y3799D02*
X7548Y3799D01*
X7548Y3799D02*
X7524Y3754D01*
D02*
X4686Y642D02*
X4572Y703D01*
D02*
X4572Y703D02*
X4476Y703D01*
D02*
X4476Y703D02*
X4430Y650D01*
D02*
X5587Y643D02*
X5484Y703D01*
D02*
X5484Y703D02*
X5364Y703D01*
D02*
X5364Y703D02*
X5328Y652D01*
D02*
X6193Y606D02*
X6156Y559D01*
D02*
X6156Y559D02*
X5628Y559D01*
D02*
X5628Y559D02*
X5618Y601D01*
D02*
X6486Y642D02*
X6372Y703D01*
D02*
X6372Y703D02*
X6276Y703D01*
D02*
X6276Y703D02*
X6230Y650D01*
D02*
X2928Y652D02*
X2964Y703D01*
D02*
X2964Y703D02*
X3468Y703D01*
D02*
X3468Y703D02*
X3497Y653D01*
D02*
X2630Y650D02*
X2676Y703D01*
D02*
X2676Y703D02*
X2892Y655D01*
D02*
X2892Y655D02*
X2894Y652D01*
D02*
X7384Y621D02*
X7164Y559D01*
D02*
X7164Y559D02*
X7129Y606D01*
D02*
X2025Y654D02*
X2052Y703D01*
D02*
X2052Y703D02*
X2556Y703D01*
D02*
X2556Y703D02*
X2594Y652D01*
D02*
X1128Y652D02*
X1164Y703D01*
D02*
X1164Y703D02*
X1668Y703D01*
D02*
X1668Y703D02*
X1697Y653D01*
D02*
X225Y654D02*
X252Y703D01*
D02*
X252Y703D02*
X756Y703D01*
D02*
X756Y703D02*
X794Y652D01*
D02*
X6710Y600D02*
X6708Y511D01*
D02*
X6708Y511D02*
X5580Y511D01*
D02*
X5580Y511D02*
X4663Y558D01*
D02*
X4098Y3703D02*
X4092Y3691D01*
X4092Y3691D02*
X3684Y3559D01*
X3684Y3559D02*
X3684Y3199D01*
D02*
X3684Y3199D02*
X3804Y3175D01*
D02*
X3804Y3175D02*
X3804Y3079D01*
D02*
X3804Y3079D02*
X3252Y3079D01*
D02*
X3252Y3079D02*
X3252Y3101D01*
D02*
X7691Y3708D02*
X6972Y2983D01*
D02*
X6972Y2983D02*
X6156Y2983D01*
D02*
X6156Y2983D02*
X6156Y2959D01*
D02*
X6156Y2959D02*
X5940Y2959D01*
D02*
X5940Y2959D02*
X5932Y2950D01*
D02*
X4292Y3707D02*
X3852Y3223D01*
D02*
X3852Y3223D02*
X3852Y3031D01*
D02*
X3852Y3031D02*
X3204Y3031D01*
D02*
X3204Y3031D02*
X3204Y3199D01*
D02*
X3204Y3199D02*
X3348Y3151D01*
D02*
X3348Y3151D02*
X3347Y3156D01*
D02*
X4913Y657D02*
X4956Y1303D01*
D02*
X4956Y1303D02*
X5100Y1303D01*
D02*
X5100Y1303D02*
X5790Y2007D01*
D02*
X6575Y861D02*
X5932Y1507D01*
D02*
X6281Y3079D02*
X6108Y3079D01*
D02*
X6108Y3079D02*
X6036Y3247D01*
D02*
X6036Y3247D02*
X5724Y3247D01*
D02*
X5724Y3247D02*
X5700Y3223D01*
D02*
X5700Y3223D02*
X5700Y2935D01*
D02*
X5700Y2935D02*
X5790Y2849D01*
D02*
X2532Y3709D02*
X2796Y3463D01*
X2796Y3463D02*
X2796Y3218D01*
D02*
X2328Y3705D02*
X2796Y3055D01*
D02*
X2796Y3055D02*
X3156Y3055D01*
D02*
X3156Y3055D02*
X3156Y2983D01*
D02*
X3156Y2983D02*
X3900Y2983D01*
D02*
X3900Y2983D02*
X3909Y3101D01*
D02*
X6401Y3079D02*
X6348Y3079D01*
D02*
X6348Y3079D02*
X6348Y3151D01*
D02*
X6348Y3151D02*
X6156Y3151D01*
D02*
X6156Y3151D02*
X6156Y3295D01*
D02*
X6156Y3295D02*
X5676Y3295D01*
D02*
X5676Y3295D02*
X5652Y3271D01*
D02*
X5652Y3271D02*
X5652Y2882D01*
D02*
X5117Y657D02*
X5144Y805D01*
D02*
X5724Y2090D02*
X5724Y2815D01*
D02*
X5724Y2815D02*
X5604Y2815D01*
D02*
X5604Y2815D02*
X5604Y3343D01*
D02*
X5604Y3343D02*
X6204Y3343D01*
D02*
X6204Y3343D02*
X6204Y3199D01*
D02*
X6204Y3199D02*
X6396Y3199D01*
D02*
X6396Y3199D02*
X6396Y3127D01*
D02*
X6396Y3127D02*
X6468Y3127D01*
D02*
X6468Y3127D02*
X6468Y3055D01*
D02*
X6468Y3055D02*
X6497Y3055D01*
D02*
X1629Y3751D02*
X1668Y3799D01*
X1668Y3799D02*
X1884Y3799D01*
X1884Y3799D02*
X1884Y3679D01*
X1884Y3679D02*
X1812Y3607D01*
X1812Y3607D02*
X2436Y2935D01*
D02*
X2436Y2935D02*
X3041Y2935D01*
D02*
X4331Y649D02*
X4908Y1231D01*
D02*
X4908Y1231D02*
X4908Y1375D01*
D02*
X4908Y1375D02*
X5052Y1375D01*
D02*
X5052Y1375D02*
X5676Y2047D01*
D02*
X5676Y2047D02*
X5676Y2767D01*
D02*
X5676Y2767D02*
X5556Y2767D01*
D02*
X5556Y2767D02*
X5556Y3079D01*
D02*
X5556Y3079D02*
X4860Y3079D01*
D02*
X4860Y3079D02*
X4860Y3655D01*
D02*
X4860Y3655D02*
X4644Y3679D01*
X4644Y3679D02*
X4644Y3799D01*
X4644Y3799D02*
X5268Y3847D01*
X5268Y3847D02*
X6108Y3847D01*
X6108Y3847D02*
X6108Y3823D01*
X6108Y3823D02*
X6348Y3787D01*
X6348Y3787D02*
X6372Y3775D01*
X6372Y3775D02*
X6372Y3511D01*
X6372Y3511D02*
X6763Y3327D01*
D02*
X6425Y2407D02*
X6204Y2407D01*
D02*
X6204Y2407D02*
X5933Y2149D01*
D02*
X1431Y3749D02*
X1500Y3823D01*
D02*
X1500Y3823D02*
X1620Y3823D01*
X1620Y3823D02*
X1620Y3847D01*
X1620Y3847D02*
X1932Y3847D01*
X1932Y3847D02*
X1932Y3631D01*
X1932Y3631D02*
X2484Y3007D01*
D02*
X2484Y3007D02*
X3108Y3007D01*
D02*
X3108Y3007D02*
X3108Y2935D01*
D02*
X3108Y2935D02*
X3948Y2935D01*
D02*
X3948Y2935D02*
X3948Y3007D01*
D02*
X3948Y3007D02*
X4188Y3103D01*
D02*
X4188Y3103D02*
X4192Y3108D01*
D02*
X612Y3757D02*
X612Y3751D01*
D02*
X612Y3751D02*
X1086Y4015D01*
D02*
X3289Y3746D02*
X3252Y3775D01*
D02*
X3252Y3775D02*
X3084Y3943D01*
X3084Y3943D02*
X2940Y3991D01*
X2940Y3991D02*
X2929Y4006D01*
D02*
X3786Y4016D02*
X3348Y3799D01*
X3348Y3799D02*
X3324Y3754D01*
D02*
X5134Y3712D02*
X5229Y3642D01*
D02*
X6888Y3746D02*
X6534Y4011D01*
D02*
X7827Y3705D02*
X7860Y3655D01*
D02*
X7860Y3655D02*
X8172Y3655D01*
D02*
X8172Y3655D02*
X8172Y3775D01*
D02*
X8172Y3775D02*
X8100Y3847D01*
D02*
X8100Y3847D02*
X7668Y3847D01*
D02*
X7668Y3847D02*
X7435Y4012D01*
D02*
X3152Y3156D02*
X3156Y3607D01*
X3156Y3607D02*
X3108Y3631D01*
X3108Y3631D02*
X2844Y3679D01*
X2844Y3679D02*
X2844Y3799D01*
X2844Y3799D02*
X3204Y3799D01*
X3204Y3799D02*
X3252Y3775D01*
D02*
X4098Y654D02*
X3824Y1204D01*
D02*
X4503Y356D02*
X4500Y367D01*
D02*
X4500Y367D02*
X4116Y583D01*
D02*
X4116Y583D02*
X4114Y600D01*
D02*
X2739Y337D02*
X2844Y367D01*
D02*
X2844Y367D02*
X2844Y415D01*
D02*
X2844Y415D02*
X3187Y614D01*
D02*
X936Y343D02*
X1387Y614D01*
D02*
X6802Y601D02*
X6756Y463D01*
D02*
X6756Y463D02*
X6324Y367D01*
D02*
X6324Y367D02*
X6320Y356D01*
D02*
X7196Y353D02*
X7188Y367D01*
D02*
X7188Y367D02*
X6835Y612D01*
D02*
X4000Y655D02*
X3780Y1159D01*
D02*
X3780Y1159D02*
X3660Y1183D01*
D02*
X3660Y1183D02*
X3660Y1303D01*
D02*
X3660Y1303D02*
X4860Y1303D01*
D02*
X4860Y1303D02*
X4860Y1447D01*
D02*
X4860Y1447D02*
X5004Y1447D01*
D02*
X5004Y1447D02*
X5628Y2119D01*
D02*
X5628Y2119D02*
X5628Y2719D01*
D02*
X5628Y2719D02*
X5508Y2719D01*
D02*
X5508Y2719D02*
X5508Y3031D01*
D02*
X5508Y3031D02*
X4812Y3031D01*
D02*
X4812Y3031D02*
X4764Y3079D01*
D02*
X4764Y3079D02*
X4596Y3631D01*
D02*
X4596Y3631D02*
X4596Y3871D01*
X4596Y3871D02*
X6156Y3895D01*
X6156Y3895D02*
X6420Y3823D01*
X6420Y3823D02*
X6420Y3559D01*
X6420Y3559D02*
X6835Y3375D01*
D02*
X6023Y2346D02*
X5932Y2250D01*
D02*
X4531Y3865D02*
X4572Y3967D01*
X4572Y3967D02*
X4572Y4087D01*
X4572Y4087D02*
X2844Y4087D01*
X2844Y4087D02*
X2844Y3943D01*
X2844Y3943D02*
X2796Y3847D01*
X2796Y3847D02*
X2796Y3607D01*
X2796Y3607D02*
X3108Y3559D01*
X3108Y3559D02*
X3108Y3223D01*
D02*
X3108Y3223D02*
X2964Y3151D01*
D02*
X2964Y3151D02*
X2965Y3153D01*
D02*
X3680Y578D02*
X3564Y1183D01*
D02*
X3564Y1183D02*
X3564Y1303D01*
D02*
X3564Y1303D02*
X3612Y1375D01*
D02*
X3612Y1375D02*
X4812Y1375D01*
D02*
X4812Y1375D02*
X4812Y1519D01*
D02*
X4812Y1519D02*
X5580Y2191D01*
D02*
X5580Y2191D02*
X5580Y2671D01*
D02*
X5580Y2671D02*
X5460Y2671D01*
D02*
X5460Y2671D02*
X5460Y2767D01*
D02*
X5460Y2767D02*
X5455Y2767D01*
D02*
X5743Y3414D02*
X6252Y3391D01*
D02*
X6252Y3391D02*
X6693Y3067D01*
D02*
X6546Y2292D02*
X6252Y2359D01*
D02*
X6252Y2359D02*
X6492Y2359D01*
D02*
X6492Y2359D02*
X6492Y2455D01*
D02*
X6492Y2455D02*
X6156Y2455D01*
D02*
X6156Y2455D02*
X6156Y2431D01*
D02*
X6156Y2431D02*
X6012Y2431D01*
D02*
X6012Y2431D02*
X5932Y2350D01*
D02*
X3319Y415D02*
X3833Y415D01*
D02*
X4471Y485D02*
X5460Y391D01*
D02*
X5460Y391D02*
X5484Y271D01*
D02*
X5484Y271D02*
X7260Y271D01*
D02*
X7260Y271D02*
X7284Y511D01*
D02*
X7284Y511D02*
X7332Y559D01*
D02*
X7332Y559D02*
X8172Y559D01*
D02*
X8172Y559D02*
X8172Y703D01*
D02*
X8172Y703D02*
X7668Y799D01*
D02*
X7668Y799D02*
X6132Y2239D01*
D02*
X6132Y2239D02*
X6612Y2239D01*
D02*
X6612Y2239D02*
X6612Y2359D01*
D02*
X6612Y2359D02*
X6540Y2359D01*
D02*
X6540Y2359D02*
X6540Y2503D01*
D02*
X6540Y2503D02*
X5940Y2479D01*
D02*
X5940Y2479D02*
X5926Y2455D01*
D02*
X731Y3708D02*
X1524Y2911D01*
D02*
X1524Y2911D02*
X2388Y2887D01*
D02*
X2388Y2887D02*
X3996Y2887D01*
D02*
X3996Y2887D02*
X4260Y3055D01*
D02*
X4260Y3055D02*
X4260Y3175D01*
D02*
X4260Y3175D02*
X4284Y3199D01*
D02*
X4284Y3199D02*
X4572Y3199D01*
D02*
X4572Y3199D02*
X4598Y3153D01*
D02*
X426Y3704D02*
X456Y3655D01*
D02*
X456Y3655D02*
X756Y3583D01*
X756Y3583D02*
X1476Y2839D01*
D02*
X1476Y2839D02*
X4044Y2839D01*
D02*
X4044Y2839D02*
X4404Y3103D01*
D02*
X4404Y3103D02*
X4404Y3102D01*
D02*
X531Y3750D02*
X695Y3929D01*
D02*
X2226Y604D02*
X2268Y535D01*
D02*
X2268Y535D02*
X2537Y535D01*
D02*
X6324Y2186D02*
X6324Y2191D01*
D02*
X6324Y2191D02*
X6684Y2191D01*
D02*
X6684Y2191D02*
X6660Y2431D01*
D02*
X6660Y2431D02*
X6588Y2431D01*
D02*
X6588Y2431D02*
X6588Y2551D01*
D02*
X6588Y2551D02*
X5941Y2530D01*
D02*
X7033Y3747D02*
X7284Y3967D01*
X7284Y3967D02*
X7284Y4092D01*
D02*
X2705Y3872D02*
X1572Y3895D01*
X1572Y3895D02*
X1068Y3787D01*
X1068Y3787D02*
X1044Y3775D01*
X1044Y3775D02*
X1044Y3655D01*
X1044Y3655D02*
X2227Y2993D01*
D02*
X3023Y3306D02*
X2871Y3149D01*
D02*
X2047Y1159D02*
X2052Y1159D01*
D02*
X2052Y1159D02*
X2052Y751D01*
D02*
X2052Y751D02*
X2004Y751D01*
D02*
X2004Y751D02*
X1932Y655D01*
D02*
X1932Y655D02*
X1932Y583D01*
D02*
X1932Y583D02*
X2676Y391D01*
D02*
X2676Y391D02*
X1932Y391D01*
D02*
X1932Y391D02*
X1932Y271D01*
D02*
X1932Y271D02*
X3876Y223D01*
D02*
X3876Y223D02*
X7308Y223D01*
D02*
X7308Y223D02*
X7380Y511D01*
D02*
X7380Y511D02*
X8220Y511D01*
D02*
X8220Y511D02*
X8220Y775D01*
D02*
X8220Y775D02*
X6636Y2599D01*
D02*
X6636Y2599D02*
X5941Y2627D01*
D02*
X1494Y444D02*
X1884Y535D01*
D02*
X1884Y535D02*
X1884Y727D01*
D02*
X1884Y727D02*
X132Y3703D01*
D02*
X132Y3703D02*
X132Y3775D01*
X132Y3775D02*
X546Y3936D01*
D02*
X1063Y3898D02*
X1524Y3967D01*
X1524Y3967D02*
X2796Y3967D01*
X2796Y3967D02*
X2796Y4135D01*
X2796Y4135D02*
X7332Y4159D01*
X7332Y4159D02*
X7332Y4087D01*
X7332Y4087D02*
X8172Y4087D01*
D02*
X8172Y4087D02*
X8220Y3823D01*
D02*
X8220Y3823D02*
X8220Y3583D01*
D02*
X8220Y3583D02*
X7044Y2935D01*
D02*
X7044Y2935D02*
X5964Y2911D01*
D02*
X5964Y2911D02*
X5964Y2767D01*
D02*
X5964Y2767D02*
X5935Y2746D01*
D02*
X6713Y2860D02*
X6055Y2747D01*
G04 End of Copper0*
M02*