; NON-PLATED HOLES START AT T1
; THROUGH (PLATED) HOLES START AT T100
M48
INCH
T100C0.035000
T101C0.015748
T102C0.033454
T103C0.037396
T104C0.037368
%
T100
X017112Y037286
X031112Y003286
X047112Y006286
X034112Y040286
X074112Y037286
X040112Y037286
X026112Y003286
X030112Y006286
X031112Y037286
X026112Y037286
X044112Y003286
X043112Y040286
X069112Y003286
X038112Y037286
X052112Y003286
X068112Y006286
X004112Y006286
X029112Y040286
X069112Y037286
X077112Y003286
X013112Y003286
X029112Y006286
X076112Y040286
X012112Y040286
X052112Y037286
X008112Y003286
X076112Y006286
X012112Y006286
X007112Y040286
X047112Y037286
X061112Y003286
X030112Y037286
X016112Y003286
X060112Y006286
X021112Y040286
X061112Y037286
X021112Y006286
X016112Y037286
X034112Y003286
X033112Y040286
X059112Y003286
X025112Y003286
X068112Y037286
X004112Y037286
X058112Y006286
X059112Y037286
X025112Y037286
X043112Y003286
X042112Y040286
X042112Y006286
X051112Y003286
X067112Y006286
X003112Y006286
X054112Y040286
X020112Y040286
X060112Y037286
X050112Y006286
X075112Y040286
X011112Y040286
X051112Y037286
X007112Y003286
X075112Y006286
X011112Y006286
X006112Y040286
X006112Y006286
X063112Y040286
X015112Y003286
X018112Y040286
X058112Y037286
X072112Y003286
X024112Y006286
X049112Y040286
X015112Y037286
X033112Y003286
X049112Y006286
X032112Y040286
X072112Y037286
X032112Y006286
X027112Y040286
X067112Y037286
X081112Y003286
X003112Y037286
X057112Y006286
X050112Y037286
X036112Y003286
X080112Y006286
X041112Y040286
X081112Y037286
X041112Y006286
X036112Y037286
X054112Y003286
X020112Y003286
X053112Y040286
X079112Y003286
X045112Y003286
X048112Y040286
X024112Y037286
X078112Y006286
X014112Y006286
X039112Y040286
X005112Y040286
X079112Y037286
X045112Y037286
X063112Y003286
X039112Y006286
X005112Y006286
X062112Y040286
X018112Y003286
X062112Y006286
X017112Y040286
X057112Y037286
X071112Y003286
X023112Y006286
X074112Y040286
X040112Y040286
X080112Y037286
X066112Y003286
X002112Y003286
X070112Y006286
X031112Y040286
X071112Y037286
X027112Y003286
X031112Y006286
X026112Y040286
X066112Y037286
X002112Y037286
X026112Y006286
X035112Y003286
X038112Y040286
X078112Y037286
X014112Y037286
X044112Y006286
X069112Y040286
X035112Y037286
X053112Y003286
X069112Y006286
X052112Y040286
X048112Y003286
X052112Y006286
X047112Y040286
X023112Y037286
X009112Y003286
X077112Y006286
X013112Y006286
X030112Y040286
X070112Y037286
X056112Y003286
X008112Y006286
X061112Y040286
X009112Y037286
X017112Y003286
X061112Y006286
X016112Y040286
X056112Y037286
X074112Y003286
X040112Y003286
X016112Y006286
X065112Y003286
X068112Y040286
X004112Y040286
X044112Y037286
X034112Y006286
X059112Y040286
X025112Y040286
X065112Y037286
X059112Y006286
X025112Y006286
X038112Y003286
X077112Y037286
X013112Y037286
X043112Y006286
X060112Y040286
X008112Y037286
X022112Y003286
X051112Y040286
X047112Y003286
X051112Y006286
X022112Y037286
X030112Y003286
X007112Y006286
X058112Y040286
X034112Y037286
X015112Y040286
X015112Y006286
X072112Y040286
X068112Y003286
X004112Y003286
X072112Y006286
X067112Y040286
X003112Y040286
X043112Y037286
X029112Y003286
X033112Y006286
X050112Y040286
X076112Y003286
X012112Y003286
X081112Y040286
X029112Y037286
X081112Y006286
X036112Y040286
X076112Y037286
X012112Y037286
X060112Y003286
X036112Y006286
X007112Y037286
X021112Y003286
X024112Y040286
X054112Y006286
X020112Y006286
X079112Y040286
X045112Y040286
X021112Y037286
X079112Y006286
X045112Y006286
X058112Y003286
X057112Y040286
X033112Y037286
X063112Y006286
X080112Y040286
X042112Y003286
X018112Y006286
X071112Y040286
X067112Y003286
X003112Y003286
X071112Y006286
X066112Y040286
X002112Y040286
X042112Y037286
X050112Y003286
X066112Y006286
X002112Y006286
X075112Y003286
X011112Y003286
X027112Y006286
X078112Y040286
X014112Y040286
X054112Y037286
X020112Y037286
X006112Y003286
X035112Y040286
X075112Y037286
X011112Y037286
X035112Y006286
X006112Y037286
X024112Y003286
X023112Y040286
X063112Y037286
X049112Y003286
X053112Y006286
X070112Y040286
X018112Y037286
X032112Y003286
X048112Y006286
X009112Y040286
X049112Y037286
X057112Y003286
X009112Y006286
X056112Y040286
X032112Y037286
X080112Y003286
X056112Y006286
X027112Y037286
X041112Y003286
X017112Y006286
X044112Y040286
X074112Y006286
X040112Y006286
X065112Y040286
X041112Y037286
X065112Y006286
X078112Y003286
X014112Y003286
X077112Y040286
X013112Y040286
X053112Y037286
X039112Y003286
X005112Y003286
X008112Y040286
X048112Y037286
X062112Y003286
X038112Y006286
X039112Y037286
X005112Y037286
X023112Y003286
X022112Y040286
X062112Y037286
X070112Y003286
X022112Y006286
T101
X025560Y005352
X067800Y033192
X065880Y008472
X069000Y007992
X067080Y030552
X014760Y004392
X038520Y004152
X033000Y004152
X063240Y021672
X051480Y008232
X005639Y039432
X057240Y020712
X020280Y011592
X068520Y033672
X036840Y005592
X030360Y033192
X064200Y030792
X064440Y024072
X027240Y038712
X060360Y023592
X072840Y041112
X030600Y029352
X010440Y038952
X067320Y028632
X060360Y027432
X054360Y027672
X052440Y036312
X057240Y034152
X027960Y031992
X065160Y030552
X046440Y005592
X045240Y038472
X044520Y004872
X056520Y028632
X061080Y030072
X063240Y014712
X063000Y030792
X022440Y029832
X007079Y039432
X065640Y022872
T102
X032512Y031286
X051112Y031286
X035112Y012286
X039112Y031286
X045112Y031286
X034112Y012286
X042112Y031286
X053112Y012286
X047112Y012286
X056112Y012286
X032112Y012286
X050112Y031286
X051112Y012286
X039112Y012286
X045112Y012286
X049112Y031286
X044112Y012286
X054112Y031286
X042112Y012286
X048112Y031286
X036512Y031286
X055112Y031286
X050112Y012286
X038112Y012286
X033512Y031286
X052112Y031286
X046112Y031286
X057112Y012286
X033112Y012286
X043112Y031286
X036112Y012286
X031512Y031286
X055112Y012286
X041112Y031286
X054112Y012286
X048112Y012286
X030512Y031286
X043112Y012286
X052112Y012286
X046112Y012286
X040112Y031286
X029512Y031286
X041112Y012286
X037512Y031286
X034512Y031286
X037112Y012286
X053112Y031286
X028512Y031286
X035512Y031286
X044112Y031286
T103
X059112Y014286
X059112Y021286
X058112Y017286
X058112Y028286
X058112Y031286
X059112Y016286
X059112Y024286
X059112Y031286
X058112Y027286
X059112Y026286
X059112Y023286
X058112Y019286
X059112Y018286
X058112Y022286
X059112Y025286
X058112Y029286
X058112Y014286
X059112Y017286
X058112Y021286
X059112Y028286
X058112Y016286
X058112Y024286
X059112Y027286
X058112Y030286
X059112Y030286
X058112Y026286
X059112Y019286
X058112Y023286
X059112Y022286
X058112Y018286
X058112Y025286
X059112Y029286
T104
X058112Y015286
X059112Y020286
X058112Y020286
X059112Y015286
T00
M30
