; NON-PLATED HOLES START AT T1
; THROUGH (PLATED) HOLES START AT T100
M48
INCH
T100C0.035000
T101C0.033454
T102C0.037396
T103C0.037368
%
T100
X067904Y003011
X003904Y003011
X071904Y006011
X066904Y040011
X002904Y040011
X043904Y037011
X050904Y003011
X066904Y006011
X002904Y006011
X075904Y003011
X011904Y003011
X078904Y040011
X014904Y040011
X029904Y037011
X006904Y003011
X010904Y006011
X035904Y040011
X076904Y037011
X012904Y037011
X035904Y006011
X007904Y037011
X024904Y003011
X023904Y040011
X064904Y037011
X049904Y003011
X053904Y006011
X070904Y040011
X021904Y037011
X032904Y003011
X048904Y006011
X057904Y003011
X056904Y040011
X033904Y037011
X080904Y003011
X056904Y006011
X028904Y037011
X041904Y003011
X017904Y006011
X044904Y040011
X019904Y037011
X074904Y006011
X040904Y006011
X065904Y040011
X001904Y040011
X042904Y037011
X065904Y006011
X001904Y006011
X078904Y003011
X014904Y003011
X077904Y040011
X013904Y040011
X020904Y037011
X039904Y003011
X005904Y003011
X008904Y040011
X075904Y037011
X011904Y037011
X062904Y003011
X038904Y006011
X006904Y037011
X023904Y003011
X022904Y040011
X070904Y003011
X022904Y006011
X031904Y003011
X047904Y006011
X034904Y040011
X049904Y037011
X026904Y003011
X030904Y006011
X055904Y040011
X032904Y037011
X055904Y006011
X044904Y003011
X043904Y040011
X010904Y037011
X069904Y003011
X073904Y006011
X041904Y037011
X052904Y003011
X068904Y006011
X004904Y006011
X029904Y040011
X077904Y003011
X013904Y003011
X029904Y006011
X076904Y040011
X012904Y040011
X053904Y037011
X008904Y003011
X076904Y006011
X012904Y006011
X007904Y040011
X048904Y037011
X061904Y003011
X037904Y006011
X064904Y040011
X039904Y037011
X005904Y037011
X016904Y003011
X060904Y006011
X021904Y040011
X062904Y037011
X021904Y006011
X017904Y037011
X034904Y003011
X033904Y040011
X074904Y037011
X040904Y037011
X059904Y003011
X025904Y003011
X028904Y040011
X031904Y037011
X058904Y006011
X019904Y040011
X026904Y037011
X043904Y003011
X019904Y006011
X042904Y040011
X042904Y006011
X038904Y037011
X051904Y003011
X067904Y006011
X003904Y006011
X020904Y040011
X069904Y037011
X046904Y003011
X050904Y006011
X075904Y040011
X011904Y040011
X052904Y037011
X007904Y003011
X075904Y006011
X011904Y006011
X006904Y040011
X047904Y037011
X064904Y003011
X006904Y006011
X030904Y037011
X015904Y003011
X061904Y037011
X024904Y006011
X049904Y040011
X016904Y037011
X033904Y003011
X049904Y006011
X032904Y040011
X073904Y037011
X028904Y003011
X032904Y006011
X068904Y037011
X004904Y037011
X057904Y006011
X010904Y040011
X059904Y037011
X025904Y037011
X080904Y006011
X041904Y040011
X041904Y006011
X037904Y037011
X020904Y003011
X053904Y040011
X060904Y037011
X079904Y003011
X048904Y040011
X051904Y037011
X078904Y006011
X014904Y006011
X039904Y040011
X005904Y040011
X046904Y037011
X039904Y006011
X005904Y006011
X062904Y040011
X062904Y006011
X017904Y040011
X058904Y037011
X071904Y003011
X023904Y006011
X074904Y040011
X040904Y040011
X015904Y037011
X066904Y003011
X002904Y003011
X070904Y006011
X031904Y040011
X031904Y006011
X026904Y040011
X067904Y037011
X003904Y037011
X010904Y003011
X026904Y006011
X050904Y037011
X035904Y003011
X038904Y040011
X044904Y006011
X069904Y040011
X053904Y003011
X069904Y006011
X052904Y040011
X048904Y003011
X052904Y006011
X047904Y040011
X024904Y037011
X077904Y006011
X013904Y006011
X030904Y040011
X079904Y037011
X056904Y003011
X008904Y006011
X061904Y040011
X017904Y003011
X061904Y006011
X016904Y040011
X057904Y037011
X074904Y003011
X040904Y003011
X016904Y006011
X073904Y040011
X080904Y037011
X065904Y003011
X001904Y003011
X068904Y040011
X004904Y040011
X071904Y037011
X034904Y006011
X059904Y040011
X025904Y040011
X066904Y037011
X002904Y037011
X059904Y006011
X025904Y006011
X038904Y003011
X037904Y040011
X078904Y037011
X014904Y037011
X043904Y006011
X060904Y040011
X035904Y037011
X022904Y003011
X051904Y040011
X047904Y003011
X051904Y006011
X046904Y040011
X023904Y037011
X030904Y003011
X046904Y006011
X070904Y037011
X055904Y003011
X007904Y006011
X058904Y040011
X064904Y006011
X015904Y040011
X056904Y037011
X073904Y003011
X015904Y006011
X068904Y003011
X004904Y003011
X067904Y040011
X003904Y040011
X044904Y037011
X029904Y003011
X033904Y006011
X050904Y040011
X065904Y037011
X001904Y037011
X076904Y003011
X012904Y003011
X028904Y006011
X037904Y003011
X077904Y037011
X013904Y037011
X060904Y003011
X008904Y037011
X021904Y003011
X024904Y040011
X020904Y006011
X079904Y040011
X022904Y037011
X079904Y006011
X058904Y003011
X057904Y040011
X034904Y037011
X019904Y003011
X080904Y040011
X055904Y037011
X042904Y003011
X071904Y040011
T101
X030304Y031011
X049904Y031011
X044904Y012011
X029304Y031011
X054904Y031011
X042904Y012011
X041903Y031011
X037304Y031011
X048904Y031011
X049904Y012011
X034304Y031011
X050904Y012011
X052904Y031011
X038904Y012011
X035304Y031011
X033904Y012011
X046903Y012011
X043904Y031011
X032304Y031011
X036904Y012011
X041903Y012011
X055904Y012011
X031904Y012011
X054904Y012011
X043904Y012011
X052904Y012011
X051903Y031011
X040904Y031011
X056903Y012011
X037904Y012011
X053904Y031011
X036304Y031011
X047904Y031011
X051903Y012011
X044904Y031011
X033304Y031011
X035904Y012011
X039904Y031011
X045904Y031011
X034904Y012011
X040904Y012011
X031304Y031011
X042904Y031011
X053904Y012011
X047904Y012011
X032904Y012011
X050904Y031011
X038904Y031011
X028303Y031011
X045904Y012011
T102
X057904Y024011
X058904Y031011
X058904Y022011
X058904Y029011
X057904Y026011
X057904Y023011
X057904Y014011
X058904Y021011
X058904Y019011
X057904Y025011
X057904Y016011
X058904Y024011
X057904Y031011
X057904Y028011
X058904Y026011
X058904Y023011
X058904Y014011
X057904Y027011
X057904Y018011
X058904Y025011
X058904Y016011
X058904Y030011
X057904Y017011
X058904Y028011
X057904Y022011
X057904Y029011
X058904Y027011
X058904Y018011
X057904Y021011
X057904Y030011
X057904Y019011
X058904Y017011
T103
X057904Y015011
X058904Y015011
X057904Y020011
X058904Y020011
T00
M30
